<svg width="576" height="130" viewBox="0 0 576 130" fill="none" xmlns="http://www.w3.org/2000/svg">
<path d="M77 0C38.5 5.5 0 27.5 0 66C0 99 27.5 121 71.5 115.5C82.5 113.3 80.3 99 71.5 99C44 104.5 29.7 88 29.7 66C29.7 44 49.5 22 77 0Z" fill="url(#paint0_linear_2_14)"/>
<path d="M126.9 26.6L156.5 97.4H148L124.9 36.1L126.9 26.6ZM105.4 90.7C104.933 92.0333 104.867 93.1667 105.2 94.1C105.533 95.0333 106.067 95.7667 106.8 96.3C107.6 96.7667 108.4 97 109.2 97H110.1V98H90V97C90 97 90.1667 97 90.5 97C90.7667 97 90.9 97 90.9 97C92.4333 97 94 96.5333 95.6 95.6C97.2667 94.6 98.6333 92.9667 99.7 90.7H105.4ZM126.9 26.6L127.8 33.6L102.7 97.7H96.7L122.3 36.9C122.3 36.9 122.467 36.5 122.8 35.7C123.2 34.8333 123.633 33.8 124.1 32.6C124.633 31.4 125.067 30.2333 125.4 29.1C125.8 27.9667 126 27.1333 126 26.6H126.9ZM141 70.7V73.7H109.7V70.7H141ZM145.5 90.7H153.7C154.7 92.9667 156.033 94.6 157.7 95.6C159.367 96.5333 160.967 97 162.5 97C162.5 97 162.633 97 162.9 97C163.167 97 163.3 97 163.3 97V98H140.8V97H141.7C142.967 97 144.1 96.4667 145.1 95.4C146.1 94.2667 146.233 92.7 145.5 90.7ZM174.791 26.5L232.891 88.5L233.791 99.4L175.691 37.5L174.791 26.5ZM174.991 90.9V98H166.691V97C166.691 97 166.991 97 167.591 97C168.191 97 168.525 97 168.591 97C170.258 97 171.691 96.4 172.891 95.2C174.091 94 174.691 92.5667 174.691 90.9H174.991ZM179.291 90.9C179.291 92.5667 179.891 94 181.091 95.2C182.291 96.4 183.725 97 185.391 97C185.458 97 185.791 97 186.391 97C186.991 97 187.291 97 187.291 97V98H178.991V90.9H179.291ZM174.791 26.5L179.191 32.1L179.291 98H174.691V39C174.691 35.6 174.525 32.6667 174.191 30.2C173.925 27.7333 173.791 26.5 173.791 26.5H174.791ZM233.791 28V86.6C233.791 88.7333 233.858 90.8 233.991 92.8C234.125 94.7333 234.258 96.3333 234.391 97.6C234.591 98.8 234.691 99.4 234.691 99.4H233.791L229.291 94.1V28H233.791ZM241.791 28V29C241.791 29 241.491 29 240.891 29C240.291 29 239.991 29 239.991 29C238.325 29 236.891 29.6 235.691 30.8C234.491 31.9333 233.858 33.3667 233.791 35.1H233.491V28H241.791ZM221.191 28H229.491V35.1H229.291C229.225 33.3667 228.591 31.9333 227.391 30.8C226.258 29.6 224.825 29 223.091 29C223.091 29 222.791 29 222.191 29C221.591 29 221.258 29 221.191 29V28ZM285.197 28C292.33 28 298.564 29.4667 303.897 32.4C309.297 35.2667 313.497 39.3333 316.497 44.6C319.564 49.8667 321.097 56 321.097 63C321.097 70 319.564 76.1333 316.497 81.4C313.497 86.6 309.297 90.6667 303.897 93.6C298.564 96.5333 292.33 98 285.197 98H263.797L263.697 95C263.697 95 264.397 95 265.797 95C267.264 95 269.064 95 271.197 95C273.397 95 275.564 95 277.697 95C279.83 95 281.597 95 282.997 95C284.464 95 285.197 95 285.197 95C290.93 95 295.897 93.6667 300.097 91C304.364 88.3333 307.664 84.6 309.997 79.8C312.397 75 313.597 69.4 313.597 63C313.597 56.6 312.397 51 309.997 46.2C307.664 41.4 304.364 37.6667 300.097 35C295.83 32.3333 290.864 31 285.197 31C285.197 31 284.43 31 282.897 31C281.43 31 279.564 31 277.297 31C275.097 31 272.864 31 270.597 31C268.397 31 266.53 31 264.997 31C263.464 31 262.697 31 262.697 31V28H285.197ZM265.497 28V98H258.997V28H265.497ZM259.297 90.7V98H251.297V97C251.297 97 251.497 97 251.897 97C252.364 97 252.597 97 252.597 97C254.33 97 255.797 96.4 256.997 95.2C258.264 93.9333 258.93 92.4333 258.997 90.7H259.297ZM259.297 35.3H258.997C258.997 33.5667 258.364 32.1 257.097 30.9C255.83 29.6333 254.33 29 252.597 29C252.597 29 252.397 29 251.997 29C251.597 29 251.397 29 251.397 29L251.297 28H259.297V35.3ZM344.208 28V98H337.708V28H344.208ZM371.208 94.9V98H343.908V94.9H371.208ZM366.908 62V65H343.908V62H366.908ZM371.208 28V31.1H343.908V28H371.208ZM377.308 81.8L371.508 98H354.908L358.508 94.9C362.041 94.9 364.908 94.3667 367.108 93.3C369.374 92.1667 371.208 90.6 372.608 88.6C374.008 86.6 375.241 84.3333 376.308 81.8H377.308ZM366.908 64.8V71.4H365.908V69.9C365.908 68.5667 365.441 67.4333 364.508 66.5C363.574 65.5 362.441 65 361.108 65V64.8H366.908ZM366.908 55.6V62.2H361.108V62C362.441 61.9333 363.574 61.4333 364.508 60.5C365.441 59.5 365.908 58.3333 365.908 57V55.6H366.908ZM371.208 30.8V38.8H370.208V37C370.208 35.4 369.641 34.0333 368.508 32.9C367.374 31.7 365.974 31.0667 364.308 31V30.8H371.208ZM371.208 26.2V29.1L359.008 28C360.474 28 362.008 27.9 363.608 27.7C365.274 27.5 366.808 27.2667 368.208 27C369.608 26.7333 370.608 26.4667 371.208 26.2ZM338.008 90.7V98H330.008V97C330.008 97 330.208 97 330.608 97C331.074 97 331.308 97 331.308 97C333.041 97 334.508 96.4 335.708 95.2C336.974 93.9333 337.641 92.4333 337.708 90.7H338.008ZM338.008 35.3H337.708C337.708 33.5667 337.074 32.1 335.808 30.9C334.541 29.6333 333.041 29 331.308 29C331.308 29 331.108 29 330.708 29C330.308 29 330.108 29 330.108 29L330.008 28H338.008V35.3ZM400.946 28V98H394.446V28H400.946ZM427.946 94.9V98H400.646V94.9H427.946ZM434.046 81.8L428.246 98H411.646L415.246 94.9C418.779 94.9 421.646 94.3667 423.846 93.3C426.113 92.1667 427.946 90.6 429.346 88.6C430.746 86.6 431.979 84.3333 433.046 81.8H434.046ZM394.746 90.7V98H386.746V97C386.746 97 386.946 97 387.346 97C387.813 97 388.046 97 388.046 97C389.779 97 391.246 96.4 392.446 95.2C393.713 93.9333 394.379 92.4333 394.446 90.7H394.746ZM394.746 35.3H394.446C394.379 33.5667 393.713 32.1 392.446 30.9C391.246 29.6333 389.779 29 388.046 29C388.046 29 387.813 29 387.346 29C386.946 29 386.746 29 386.746 29V28H394.746V35.3ZM400.646 35.3V28H408.646V29C408.579 29 408.346 29 407.946 29C407.546 29 407.346 29 407.346 29C405.613 29 404.113 29.6333 402.846 30.9C401.646 32.1 401.013 33.5667 400.946 35.3H400.646ZM455.634 28V98H449.134V28H455.634ZM482.634 94.9V98H455.334V94.9H482.634ZM488.734 81.8L482.934 98H466.334L469.934 94.9C473.467 94.9 476.334 94.3667 478.534 93.3C480.8 92.1667 482.634 90.6 484.034 88.6C485.434 86.6 486.667 84.3333 487.734 81.8H488.734ZM449.434 90.7V98H441.434V97C441.434 97 441.634 97 442.034 97C442.5 97 442.734 97 442.734 97C444.467 97 445.934 96.4 447.134 95.2C448.4 93.9333 449.067 92.4333 449.134 90.7H449.434ZM449.434 35.3H449.134C449.067 33.5667 448.4 32.1 447.134 30.9C445.934 29.6333 444.467 29 442.734 29C442.734 29 442.5 29 442.034 29C441.634 29 441.434 29 441.434 29V28H449.434V35.3ZM455.334 35.3V28H463.334V29C463.267 29 463.034 29 462.634 29C462.234 29 462.034 29 462.034 29C460.3 29 458.8 29.6333 457.534 30.9C456.334 32.1 455.7 33.5667 455.634 35.3H455.334ZM527.486 26.6L557.086 97.4H548.586L525.486 36.1L527.486 26.6ZM505.986 90.7C505.519 92.0333 505.453 93.1667 505.786 94.1C506.119 95.0333 506.653 95.7667 507.386 96.3C508.186 96.7667 508.986 97 509.786 97H510.686V98H490.586V97C490.586 97 490.753 97 491.086 97C491.353 97 491.486 97 491.486 97C493.019 97 494.586 96.5333 496.186 95.6C497.853 94.6 499.219 92.9667 500.286 90.7H505.986ZM527.486 26.6L528.386 33.6L503.286 97.7H497.286L522.886 36.9C522.886 36.9 523.053 36.5 523.386 35.7C523.786 34.8333 524.219 33.8 524.686 32.6C525.219 31.4 525.653 30.2333 525.986 29.1C526.386 27.9667 526.586 27.1333 526.586 26.6H527.486ZM541.586 70.7V73.7H510.286V70.7H541.586ZM546.086 90.7H554.286C555.286 92.9667 556.619 94.6 558.286 95.6C559.953 96.5333 561.553 97 563.086 97C563.086 97 563.219 97 563.486 97C563.753 97 563.886 97 563.886 97V98H541.386V97H542.286C543.553 97 544.686 96.4667 545.686 95.4C546.686 94.2667 546.819 92.7 546.086 90.7Z" fill="white"/>
<defs>
<linearGradient id="paint0_linear_2_14" x1="0" y1="11634.2" x2="10811.3" y2="4297.9" gradientUnits="userSpaceOnUse">
<stop stop-color="#EA580C"/>
<stop offset="1" stop-color="#FDE047"/>
</linearGradient>
</defs>
</svg>
