<svg width="1000" height="400" viewBox="240 155 600 150" fill="none" xmlns="http://www.w3.org/2000/svg">
 
<g clip-path="url(#clip0_0_1)">
<path d="M336 167C297.5 172.5 259 194.5 259 233C259 266 286.5 288 330.5 282.5C341.5 280.3 339.3 266 330.5 266C303 271.5 288.7 255 288.7 233C288.7 211 308.5 189 336 167Z" fill="url(#paint0_linear_0_1)"/>
<path d="M385.9 193.6L415.5 264.4H407L383.9 203.1L385.9 193.6ZM364.4 257.7C363.933 259.033 363.867 260.167 364.2 261.1C364.533 262.033 365.067 262.767 365.8 263.3C366.6 263.767 367.4 264 368.2 264H369.1V265H349V264C349 264 349.167 264 349.5 264C349.767 264 349.9 264 349.9 264C351.433 264 353 263.533 354.6 262.6C356.267 261.6 357.633 259.967 358.7 257.7H364.4ZM385.9 193.6L386.8 200.6L361.7 264.7H355.7L381.3 203.9C381.3 203.9 381.467 203.5 381.8 202.7C382.2 201.833 382.633 200.8 383.1 199.6C383.633 198.4 384.067 197.233 384.4 196.1C384.8 194.967 385 194.133 385 193.6H385.9ZM400 237.7V240.7H368.7V237.7H400ZM404.5 257.7H412.7C413.7 259.967 415.033 261.6 416.7 262.6C418.367 263.533 419.967 264 421.5 264C421.5 264 421.633 264 421.9 264C422.167 264 422.3 264 422.3 264V265H399.8V264H400.7C401.967 264 403.1 263.467 404.1 262.4C405.1 261.267 405.233 259.7 404.5 257.7ZM433.791 193.5L491.891 255.5L492.791 266.4L434.691 204.5L433.791 193.5ZM433.991 257.9V265H425.691V264C425.691 264 425.991 264 426.591 264C427.191 264 427.525 264 427.591 264C429.258 264 430.691 263.4 431.891 262.2C433.091 261 433.691 259.567 433.691 257.9H433.991ZM438.291 257.9C438.291 259.567 438.891 261 440.091 262.2C441.291 263.4 442.725 264 444.391 264C444.458 264 444.791 264 445.391 264C445.991 264 446.291 264 446.291 264V265H437.991V257.9H438.291ZM433.791 193.5L438.191 199.1L438.291 265H433.691V206C433.691 202.6 433.525 199.667 433.191 197.2C432.925 194.733 432.791 193.5 432.791 193.5H433.791ZM492.791 195V253.6C492.791 255.733 492.858 257.8 492.991 259.8C493.125 261.733 493.258 263.333 493.391 264.6C493.591 265.8 493.691 266.4 493.691 266.4H492.791L488.291 261.1V195H492.791ZM500.791 195V196C500.791 196 500.491 196 499.891 196C499.291 196 498.991 196 498.991 196C497.325 196 495.891 196.6 494.691 197.8C493.491 198.933 492.858 200.367 492.791 202.1H492.491V195H500.791ZM480.191 195H488.491V202.1H488.291C488.225 200.367 487.591 198.933 486.391 197.8C485.258 196.6 483.825 196 482.091 196C482.091 196 481.791 196 481.191 196C480.591 196 480.258 196 480.191 196V195ZM544.197 195C551.33 195 557.564 196.467 562.897 199.4C568.297 202.267 572.497 206.333 575.497 211.6C578.564 216.867 580.097 223 580.097 230C580.097 237 578.564 243.133 575.497 248.4C572.497 253.6 568.297 257.667 562.897 260.6C557.564 263.533 551.33 265 544.197 265H522.797L522.697 262C522.697 262 523.397 262 524.797 262C526.264 262 528.064 262 530.197 262C532.397 262 534.564 262 536.697 262C538.83 262 540.597 262 541.997 262C543.464 262 544.197 262 544.197 262C549.93 262 554.897 260.667 559.097 258C563.364 255.333 566.664 251.6 568.997 246.8C571.397 242 572.597 236.4 572.597 230C572.597 223.6 571.397 218 568.997 213.2C566.664 208.4 563.364 204.667 559.097 202C554.83 199.333 549.864 198 544.197 198C544.197 198 543.43 198 541.897 198C540.43 198 538.564 198 536.297 198C534.097 198 531.864 198 529.597 198C527.397 198 525.53 198 523.997 198C522.464 198 521.697 198 521.697 198V195H544.197ZM524.497 195V265H517.997V195H524.497ZM518.297 257.7V265H510.297V264C510.297 264 510.497 264 510.897 264C511.364 264 511.597 264 511.597 264C513.33 264 514.797 263.4 515.997 262.2C517.264 260.933 517.93 259.433 517.997 257.7H518.297ZM518.297 202.3H517.997C517.997 200.567 517.364 199.1 516.097 197.9C514.83 196.633 513.33 196 511.597 196C511.597 196 511.397 196 510.997 196C510.597 196 510.397 196 510.397 196L510.297 195H518.297V202.3ZM603.208 195V265H596.708V195H603.208ZM630.208 261.9V265H602.908V261.9H630.208ZM625.908 229V232H602.908V229H625.908ZM630.208 195V198.1H602.908V195H630.208ZM636.308 248.8L630.508 265H613.908L617.508 261.9C621.041 261.9 623.908 261.367 626.108 260.3C628.374 259.167 630.208 257.6 631.608 255.6C633.008 253.6 634.241 251.333 635.308 248.8H636.308ZM625.908 231.8V238.4H624.908V236.9C624.908 235.567 624.441 234.433 623.508 233.5C622.574 232.5 621.441 232 620.108 232V231.8H625.908ZM625.908 222.6V229.2H620.108V229C621.441 228.933 622.574 228.433 623.508 227.5C624.441 226.5 624.908 225.333 624.908 224V222.6H625.908ZM630.208 197.8V205.8H629.208V204C629.208 202.4 628.641 201.033 627.508 199.9C626.374 198.7 624.974 198.067 623.308 198V197.8H630.208ZM630.208 193.2V196.1L618.008 195C619.474 195 621.008 194.9 622.608 194.7C624.274 194.5 625.808 194.267 627.208 194C628.608 193.733 629.608 193.467 630.208 193.2ZM597.008 257.7V265H589.008V264C589.008 264 589.208 264 589.608 264C590.074 264 590.308 264 590.308 264C592.041 264 593.508 263.4 594.708 262.2C595.974 260.933 596.641 259.433 596.708 257.7H597.008ZM597.008 202.3H596.708C596.708 200.567 596.074 199.1 594.808 197.9C593.541 196.633 592.041 196 590.308 196C590.308 196 590.108 196 589.708 196C589.308 196 589.108 196 589.108 196L589.008 195H597.008V202.3ZM659.946 195V265H653.446V195H659.946ZM686.946 261.9V265H659.646V261.9H686.946ZM693.046 248.8L687.246 265H670.646L674.246 261.9C677.779 261.9 680.646 261.367 682.846 260.3C685.113 259.167 686.946 257.6 688.346 255.6C689.746 253.6 690.979 251.333 692.046 248.8H693.046ZM653.746 257.7V265H645.746V264C645.746 264 645.946 264 646.346 264C646.813 264 647.046 264 647.046 264C648.779 264 650.246 263.4 651.446 262.2C652.713 260.933 653.379 259.433 653.446 257.7H653.746ZM653.746 202.3H653.446C653.379 200.567 652.713 199.1 651.446 197.9C650.246 196.633 648.779 196 647.046 196C647.046 196 646.813 196 646.346 196C645.946 196 645.746 196 645.746 196V195H653.746V202.3ZM659.646 202.3V195H667.646V196C667.579 196 667.346 196 666.946 196C666.546 196 666.346 196 666.346 196C664.613 196 663.113 196.633 661.846 197.9C660.646 199.1 660.013 200.567 659.946 202.3H659.646ZM714.634 195V265H708.134V195H714.634ZM741.634 261.9V265H714.334V261.9H741.634ZM747.734 248.8L741.934 265H725.334L728.934 261.9C732.467 261.9 735.334 261.367 737.534 260.3C739.8 259.167 741.634 257.6 743.034 255.6C744.434 253.6 745.667 251.333 746.734 248.8H747.734ZM708.434 257.7V265H700.434V264C700.434 264 700.634 264 701.034 264C701.5 264 701.734 264 701.734 264C703.467 264 704.934 263.4 706.134 262.2C707.4 260.933 708.067 259.433 708.134 257.7H708.434ZM708.434 202.3H708.134C708.067 200.567 707.4 199.1 706.134 197.9C704.934 196.633 703.467 196 701.734 196C701.734 196 701.5 196 701.034 196C700.634 196 700.434 196 700.434 196V195H708.434V202.3ZM714.334 202.3V195H722.334V196C722.267 196 722.034 196 721.634 196C721.234 196 721.034 196 721.034 196C719.3 196 717.8 196.633 716.534 197.9C715.334 199.1 714.7 200.567 714.634 202.3H714.334ZM786.486 193.6L816.086 264.4H807.586L784.486 203.1L786.486 193.6ZM764.986 257.7C764.519 259.033 764.453 260.167 764.786 261.1C765.119 262.033 765.653 262.767 766.386 263.3C767.186 263.767 767.986 264 768.786 264H769.686V265H749.586V264C749.586 264 749.753 264 750.086 264C750.353 264 750.486 264 750.486 264C752.019 264 753.586 263.533 755.186 262.6C756.853 261.6 758.219 259.967 759.286 257.7H764.986ZM786.486 193.6L787.386 200.6L762.286 264.7H756.286L781.886 203.9C781.886 203.9 782.053 203.5 782.386 202.7C782.786 201.833 783.219 200.8 783.686 199.6C784.219 198.4 784.653 197.233 784.986 196.1C785.386 194.967 785.586 194.133 785.586 193.6H786.486ZM800.586 237.7V240.7H769.286V237.7H800.586ZM805.086 257.7H813.286C814.286 259.967 815.619 261.6 817.286 262.6C818.953 263.533 820.553 264 822.086 264C822.086 264 822.219 264 822.486 264C822.753 264 822.886 264 822.886 264V265H800.386V264H801.286C802.553 264 803.686 263.467 804.686 262.4C805.686 261.267 805.819 259.7 805.086 257.7Z" fill="white"/>
<path d="M468.715 308.26H476.115V309.52H468.715V308.26ZM468.875 314.72H477.295V316H467.395V302H476.995V303.28H468.875V314.72ZM485.834 305.4C486.687 305.4 487.434 305.567 488.074 305.9C488.727 306.22 489.234 306.713 489.594 307.38C489.967 308.047 490.154 308.887 490.154 309.9V316H488.734V310.04C488.734 308.933 488.454 308.1 487.894 307.54C487.347 306.967 486.574 306.68 485.574 306.68C484.827 306.68 484.174 306.833 483.614 307.14C483.067 307.433 482.641 307.867 482.334 308.44C482.041 309 481.894 309.68 481.894 310.48V316H480.474V305.5H481.834V308.38L481.614 307.84C481.947 307.08 482.481 306.487 483.214 306.06C483.947 305.62 484.821 305.4 485.834 305.4ZM497.31 316.1C496.323 316.1 495.563 315.833 495.03 315.3C494.496 314.767 494.23 314.013 494.23 313.04V303.18H495.65V312.96C495.65 313.573 495.803 314.047 496.11 314.38C496.43 314.713 496.883 314.88 497.47 314.88C498.096 314.88 498.616 314.7 499.03 314.34L499.53 315.36C499.25 315.613 498.91 315.8 498.51 315.92C498.123 316.04 497.723 316.1 497.31 316.1ZM492.35 306.68V305.5H498.85V306.68H492.35ZM506.204 316.1C505.11 316.1 504.15 315.873 503.324 315.42C502.497 314.953 501.85 314.32 501.384 313.52C500.917 312.707 500.684 311.78 500.684 310.74C500.684 309.7 500.904 308.78 501.344 307.98C501.797 307.18 502.41 306.553 503.184 306.1C503.97 305.633 504.85 305.4 505.824 305.4C506.81 305.4 507.684 305.627 508.444 306.08C509.217 306.52 509.824 307.147 510.264 307.96C510.704 308.76 510.924 309.687 510.924 310.74C510.924 310.807 510.917 310.88 510.904 310.96C510.904 311.027 510.904 311.1 510.904 311.18H501.764V310.12H510.144L509.584 310.54C509.584 309.78 509.417 309.107 509.084 308.52C508.764 307.92 508.324 307.453 507.764 307.12C507.204 306.787 506.557 306.62 505.824 306.62C505.104 306.62 504.457 306.787 503.884 307.12C503.31 307.453 502.864 307.92 502.544 308.52C502.224 309.12 502.064 309.807 502.064 310.58V310.8C502.064 311.6 502.237 312.307 502.584 312.92C502.944 313.52 503.437 313.993 504.064 314.34C504.704 314.673 505.43 314.84 506.244 314.84C506.884 314.84 507.477 314.727 508.024 314.5C508.584 314.273 509.064 313.927 509.464 313.46L510.264 314.38C509.797 314.94 509.21 315.367 508.504 315.66C507.81 315.953 507.044 316.1 506.204 316.1ZM513.814 316V305.5H515.174V308.36L515.034 307.86C515.327 307.06 515.821 306.453 516.514 306.04C517.207 305.613 518.067 305.4 519.094 305.4V306.78C519.041 306.78 518.987 306.78 518.934 306.78C518.881 306.767 518.827 306.76 518.774 306.76C517.667 306.76 516.801 307.1 516.174 307.78C515.547 308.447 515.234 309.4 515.234 310.64V316H513.814ZM525.454 316.1C524.468 316.1 523.708 315.833 523.174 315.3C522.641 314.767 522.374 314.013 522.374 313.04V303.18H523.794V312.96C523.794 313.573 523.948 314.047 524.254 314.38C524.574 314.713 525.028 314.88 525.614 314.88C526.241 314.88 526.761 314.7 527.174 314.34L527.674 315.36C527.394 315.613 527.054 315.8 526.654 315.92C526.268 316.04 525.868 316.1 525.454 316.1ZM520.494 306.68V305.5H526.994V306.68H520.494ZM536.839 316V313.68L536.779 313.3V309.42C536.779 308.527 536.526 307.84 536.019 307.36C535.526 306.88 534.786 306.64 533.799 306.64C533.119 306.64 532.473 306.753 531.859 306.98C531.246 307.207 530.726 307.507 530.299 307.88L529.659 306.82C530.193 306.367 530.833 306.02 531.579 305.78C532.326 305.527 533.113 305.4 533.939 305.4C535.299 305.4 536.346 305.74 537.079 306.42C537.826 307.087 538.199 308.107 538.199 309.48V316H536.839ZM533.219 316.1C532.433 316.1 531.746 315.973 531.159 315.72C530.586 315.453 530.146 315.093 529.839 314.64C529.533 314.173 529.379 313.64 529.379 313.04C529.379 312.493 529.506 312 529.759 311.56C530.026 311.107 530.453 310.747 531.039 310.48C531.639 310.2 532.439 310.06 533.439 310.06H537.059V311.12H533.479C532.466 311.12 531.759 311.3 531.359 311.66C530.973 312.02 530.779 312.467 530.779 313C530.779 313.6 531.013 314.08 531.479 314.44C531.946 314.8 532.599 314.98 533.439 314.98C534.239 314.98 534.926 314.8 535.499 314.44C536.086 314.067 536.513 313.533 536.779 312.84L537.099 313.82C536.833 314.513 536.366 315.067 535.699 315.48C535.046 315.893 534.219 316.1 533.219 316.1ZM542.056 316V305.5H543.476V316H542.056ZM542.776 303.18C542.483 303.18 542.236 303.08 542.036 302.88C541.836 302.68 541.736 302.44 541.736 302.16C541.736 301.88 541.836 301.647 542.036 301.46C542.236 301.26 542.483 301.16 542.776 301.16C543.07 301.16 543.316 301.253 543.516 301.44C543.716 301.627 543.816 301.86 543.816 302.14C543.816 302.433 543.716 302.68 543.516 302.88C543.33 303.08 543.083 303.18 542.776 303.18ZM552.787 305.4C553.641 305.4 554.387 305.567 555.027 305.9C555.681 306.22 556.187 306.713 556.547 307.38C556.921 308.047 557.107 308.887 557.107 309.9V316H555.687V310.04C555.687 308.933 555.407 308.1 554.847 307.54C554.301 306.967 553.527 306.68 552.527 306.68C551.781 306.68 551.127 306.833 550.567 307.14C550.021 307.433 549.594 307.867 549.287 308.44C548.994 309 548.847 309.68 548.847 310.48V316H547.427V305.5H548.787V308.38L548.567 307.84C548.901 307.08 549.434 306.487 550.167 306.06C550.901 305.62 551.774 305.4 552.787 305.4ZM574.063 305.4C574.916 305.4 575.656 305.567 576.283 305.9C576.923 306.22 577.416 306.713 577.763 307.38C578.123 308.047 578.303 308.887 578.303 309.9V316H576.883V310.04C576.883 308.933 576.616 308.1 576.083 307.54C575.563 306.967 574.823 306.68 573.863 306.68C573.143 306.68 572.516 306.833 571.983 307.14C571.463 307.433 571.056 307.867 570.763 308.44C570.483 309 570.343 309.68 570.343 310.48V316H568.923V310.04C568.923 308.933 568.656 308.1 568.123 307.54C567.59 306.967 566.843 306.68 565.883 306.68C565.176 306.68 564.556 306.833 564.023 307.14C563.49 307.433 563.076 307.867 562.783 308.44C562.503 309 562.363 309.68 562.363 310.48V316H560.943V305.5H562.303V308.34L562.083 307.84C562.403 307.08 562.916 306.487 563.623 306.06C564.343 305.62 565.19 305.4 566.163 305.4C567.19 305.4 568.063 305.66 568.783 306.18C569.503 306.687 569.97 307.453 570.183 308.48L569.623 308.26C569.93 307.407 570.47 306.72 571.243 306.2C572.03 305.667 572.97 305.4 574.063 305.4ZM586.614 316.1C585.52 316.1 584.56 315.873 583.734 315.42C582.907 314.953 582.26 314.32 581.794 313.52C581.327 312.707 581.094 311.78 581.094 310.74C581.094 309.7 581.314 308.78 581.754 307.98C582.207 307.18 582.82 306.553 583.594 306.1C584.38 305.633 585.26 305.4 586.234 305.4C587.22 305.4 588.094 305.627 588.854 306.08C589.627 306.52 590.234 307.147 590.674 307.96C591.114 308.76 591.334 309.687 591.334 310.74C591.334 310.807 591.327 310.88 591.314 310.96C591.314 311.027 591.314 311.1 591.314 311.18H582.174V310.12H590.554L589.994 310.54C589.994 309.78 589.827 309.107 589.494 308.52C589.174 307.92 588.734 307.453 588.174 307.12C587.614 306.787 586.967 306.62 586.234 306.62C585.514 306.62 584.867 306.787 584.294 307.12C583.72 307.453 583.274 307.92 582.954 308.52C582.634 309.12 582.474 309.807 582.474 310.58V310.8C582.474 311.6 582.647 312.307 582.994 312.92C583.354 313.52 583.847 313.993 584.474 314.34C585.114 314.673 585.84 314.84 586.654 314.84C587.294 314.84 587.887 314.727 588.434 314.5C588.994 314.273 589.474 313.927 589.874 313.46L590.674 314.38C590.207 314.94 589.62 315.367 588.914 315.66C588.22 315.953 587.454 316.1 586.614 316.1ZM599.584 305.4C600.437 305.4 601.184 305.567 601.824 305.9C602.477 306.22 602.984 306.713 603.344 307.38C603.717 308.047 603.904 308.887 603.904 309.9V316H602.484V310.04C602.484 308.933 602.204 308.1 601.644 307.54C601.097 306.967 600.324 306.68 599.324 306.68C598.577 306.68 597.924 306.833 597.364 307.14C596.817 307.433 596.391 307.867 596.084 308.44C595.791 309 595.644 309.68 595.644 310.48V316H594.224V305.5H595.584V308.38L595.364 307.84C595.697 307.08 596.231 306.487 596.964 306.06C597.697 305.62 598.571 305.4 599.584 305.4ZM611.06 316.1C610.073 316.1 609.313 315.833 608.78 315.3C608.246 314.767 607.98 314.013 607.98 313.04V303.18H609.4V312.96C609.4 313.573 609.553 314.047 609.86 314.38C610.18 314.713 610.633 314.88 611.22 314.88C611.846 314.88 612.366 314.7 612.78 314.34L613.28 315.36C613 315.613 612.66 315.8 612.26 315.92C611.873 316.04 611.473 316.1 611.06 316.1ZM606.1 306.68V305.5H612.6V306.68H606.1Z" fill="#71717A"/>
</g>
<defs>
<linearGradient id="paint0_linear_0_1" x1="259" y1="11801.2" x2="11070.3" y2="4464.9" gradientUnits="userSpaceOnUse">
<stop stop-color="#EA580C"/>
<stop offset="1" stop-color="#FDE047"/>
</linearGradient>
<clipPath id="clip0_0_1">
<rect width="1000" height="400" fill="white"/>
</clipPath>
</defs>
</svg>
